<svg width="325" height="208" viewBox="0 0 325 208" fill="none" xmlns="http://www.w3.org/2000/svg">
<rect width="325" height="208" rx="20" fill="#320055"/>
<path d="M280.866 124.512C259.254 146.499 260.447 109.569 240.129 86.1793C219.812 62.79 185.678 61.7989 207.291 39.8116C228.904 17.8242 262.895 18.9608 283.212 42.35C303.529 65.7393 302.479 102.524 280.866 124.512Z" fill="url(#paint0_linear_1_2)" fill-opacity="0.13"/>
<path d="M257.202 122.114C242.181 137.395 243.011 111.728 228.89 95.473C214.77 79.2175 191.047 78.5287 206.067 63.2475C221.088 47.9664 244.712 48.7563 258.832 65.0118C272.953 81.2672 272.223 106.833 257.202 122.114Z" fill="url(#paint1_linear_1_2)" fill-opacity="0.13"/>
<path d="M44.4383 117.652C64.0103 107.427 56.5508 131.193 67.0809 150.201C77.6109 169.209 102.143 176.262 82.5708 186.487C62.9988 196.711 38.5963 189.591 28.0663 170.582C17.5363 151.574 24.8662 127.876 44.4383 117.652Z" fill="url(#paint2_linear_1_2)" fill-opacity="0.13"/>
<path d="M281 167C281 176.391 273.39 184 264 184C254.61 184 247 176.389 247 167C247 157.611 254.612 150 264 150C273.388 150 281 157.611 281 167Z" fill="white" fill-opacity="0.3"/>
<path d="M284.001 150C280.19 150 276.681 151.27 273.846 153.39L273.859 153.392C274.417 153.93 275.032 154.31 275.506 154.93L271.971 154.986C271.416 155.545 270.912 156.154 270.436 156.786H276.671C277.145 157.356 277.584 157.851 277.982 158.48H269.305C268.987 159.027 268.693 159.59 268.437 160.174H278.969C279.245 160.758 279.491 161.198 279.7 161.815H267.813C267.624 162.402 267.463 163.002 267.34 163.614H280.198C280.324 164.202 280.421 164.746 280.487 165.3H267.085C267.029 165.859 267 166.427 267 167H280.584C280.584 167.602 280.542 168.159 280.48 168.7H267.085C267.143 169.276 267.228 169.843 267.34 170.4H280.178C280.045 170.951 279.892 171.505 279.7 172.08H267.774C267.954 172.661 268.173 173.226 268.413 173.776H278.969C278.677 174.395 278.345 174.89 277.98 175.469H269.275C269.618 176.064 269.997 176.632 270.409 177.176L276.671 177.27C276.137 177.91 275.452 178.296 274.828 178.857C274.862 178.885 273.83 178.854 271.799 178.822C274.889 182.011 279.209 184 284.001 184C293.39 184 301 176.389 301 167C301 157.611 293.391 150 284.001 150Z" fill="white" fill-opacity="0.4"/>
<path d="M43.0215 55H33.9766V39.2949H43.0215V42.0234H37.3066V45.4717H42.624V48.2002H37.3066V52.25H43.0215V55ZM49.8535 55.2148C48.4427 55.2148 47.3327 54.667 46.5234 53.5713C45.7214 52.4756 45.3203 50.9574 45.3203 49.0166C45.3203 47.0472 45.7285 45.5146 46.5449 44.4189C47.3685 43.3161 48.5 42.7646 49.9395 42.7646C51.4505 42.7646 52.6035 43.3519 53.3984 44.5264H53.5059C53.3411 43.6312 53.2588 42.8327 53.2588 42.1309V38.2852H56.5459V55H54.0322L53.3984 53.4424H53.2588C52.514 54.624 51.3789 55.2148 49.8535 55.2148ZM51.0029 52.6045C51.8408 52.6045 52.4531 52.361 52.8398 51.874C53.2337 51.387 53.4486 50.5599 53.4844 49.3926V49.0381C53.4844 47.749 53.2839 46.8252 52.8828 46.2666C52.4889 45.708 51.8444 45.4287 50.9492 45.4287C50.2188 45.4287 49.6494 45.7402 49.2412 46.3633C48.8402 46.9792 48.6396 47.8779 48.6396 49.0596C48.6396 50.2412 48.8438 51.1292 49.252 51.7236C49.6602 52.3109 50.2438 52.6045 51.0029 52.6045ZM64.9463 45.0957C64.2516 45.0957 63.7074 45.3177 63.3135 45.7617C62.9196 46.1986 62.694 46.8216 62.6367 47.6309H67.2344C67.2201 46.8216 67.0088 46.1986 66.6006 45.7617C66.1924 45.3177 65.641 45.0957 64.9463 45.0957ZM65.4082 55.2148C63.4746 55.2148 61.9635 54.6813 60.875 53.6143C59.7865 52.5472 59.2422 51.0361 59.2422 49.0811C59.2422 47.0687 59.7435 45.5146 60.7461 44.4189C61.7559 43.3161 63.1488 42.7646 64.9248 42.7646C66.6221 42.7646 67.9434 43.248 68.8887 44.2148C69.834 45.1816 70.3066 46.5173 70.3066 48.2217V49.8115H62.5615C62.5973 50.7425 62.873 51.4694 63.3887 51.9922C63.9043 52.515 64.6276 52.7764 65.5586 52.7764C66.2819 52.7764 66.9658 52.7012 67.6104 52.5508C68.2549 52.4004 68.9281 52.1605 69.6299 51.8311V54.3662C69.057 54.6527 68.4447 54.8639 67.793 55C67.1413 55.1432 66.3464 55.2148 65.4082 55.2148ZM84.0566 55H80.7803V47.9854C80.7803 47.1188 80.6263 46.4707 80.3184 46.041C80.0104 45.6042 79.5199 45.3857 78.8467 45.3857C77.93 45.3857 77.2676 45.6937 76.8594 46.3096C76.4512 46.9183 76.2471 47.9316 76.2471 49.3496V55H72.9707V42.9902H75.4736L75.9141 44.5264H76.0967C76.4619 43.9463 76.9632 43.5094 77.6006 43.2158C78.2451 42.915 78.9756 42.7646 79.792 42.7646C81.1885 42.7646 82.2484 43.1442 82.9717 43.9033C83.695 44.6553 84.0566 45.7438 84.0566 47.1689V55ZM106.271 55H102.952V48.2217H96.7324V55H93.4023V39.2949H96.7324V45.4502H102.952V39.2949H106.271V55ZM117.615 55L116.981 53.3672H116.896C116.344 54.0618 115.775 54.5452 115.188 54.8174C114.607 55.0824 113.848 55.2148 112.91 55.2148C111.757 55.2148 110.848 54.8854 110.182 54.2266C109.523 53.5677 109.193 52.6296 109.193 51.4121C109.193 50.1374 109.637 49.1992 110.525 48.5977C111.421 47.9889 112.767 47.6523 114.564 47.5879L116.648 47.5234V46.9971C116.648 45.7796 116.025 45.1709 114.779 45.1709C113.82 45.1709 112.692 45.4609 111.396 46.041L110.311 43.8281C111.693 43.1048 113.225 42.7432 114.908 42.7432C116.52 42.7432 117.755 43.0941 118.614 43.7959C119.474 44.4977 119.903 45.5648 119.903 46.9971V55H117.615ZM116.648 49.4355L115.381 49.4785C114.428 49.5072 113.719 49.679 113.254 49.9941C112.788 50.3092 112.556 50.7891 112.556 51.4336C112.556 52.3574 113.086 52.8193 114.146 52.8193C114.905 52.8193 115.51 52.6009 115.961 52.1641C116.419 51.7272 116.648 51.1471 116.648 50.4238V49.4355ZM131.645 55H122.159V53.0664L127.724 45.4932H122.492V42.9902H131.451V45.1172L126.037 52.4971H131.645V55ZM141.656 55L141.022 53.3672H140.937C140.385 54.0618 139.816 54.5452 139.229 54.8174C138.648 55.0824 137.889 55.2148 136.951 55.2148C135.798 55.2148 134.889 54.8854 134.223 54.2266C133.564 53.5677 133.234 52.6296 133.234 51.4121C133.234 50.1374 133.678 49.1992 134.566 48.5977C135.462 47.9889 136.808 47.6523 138.605 47.5879L140.689 47.5234V46.9971C140.689 45.7796 140.066 45.1709 138.82 45.1709C137.861 45.1709 136.733 45.4609 135.437 46.041L134.352 43.8281C135.734 43.1048 137.266 42.7432 138.949 42.7432C140.561 42.7432 141.796 43.0941 142.655 43.7959C143.515 44.4977 143.944 45.5648 143.944 46.9971V55H141.656ZM140.689 49.4355L139.422 49.4785C138.469 49.5072 137.76 49.679 137.295 49.9941C136.829 50.3092 136.597 50.7891 136.597 51.4336C136.597 52.3574 137.127 52.8193 138.187 52.8193C138.946 52.8193 139.551 52.6009 140.002 52.1641C140.46 51.7272 140.689 51.1471 140.689 50.4238V49.4355ZM154.031 42.7646C154.475 42.7646 154.844 42.7969 155.138 42.8613L154.891 45.9336C154.626 45.862 154.303 45.8262 153.924 45.8262C152.878 45.8262 152.062 46.0947 151.475 46.6318C150.895 47.1689 150.604 47.9209 150.604 48.8877V55H147.328V42.9902H149.81L150.293 45.0098H150.454C150.826 44.3366 151.328 43.7959 151.958 43.3877C152.595 42.9723 153.286 42.7646 154.031 42.7646ZM161.121 55.2148C159.71 55.2148 158.6 54.667 157.791 53.5713C156.989 52.4756 156.588 50.9574 156.588 49.0166C156.588 47.0472 156.996 45.5146 157.812 44.4189C158.636 43.3161 159.768 42.7646 161.207 42.7646C162.718 42.7646 163.871 43.3519 164.666 44.5264H164.773C164.609 43.6312 164.526 42.8327 164.526 42.1309V38.2852H167.813V55H165.3L164.666 53.4424H164.526C163.782 54.624 162.646 55.2148 161.121 55.2148ZM162.271 52.6045C163.108 52.6045 163.721 52.361 164.107 51.874C164.501 51.387 164.716 50.5599 164.752 49.3926V49.0381C164.752 47.749 164.551 46.8252 164.15 46.2666C163.757 45.708 163.112 45.4287 162.217 45.4287C161.486 45.4287 160.917 45.7402 160.509 46.3633C160.108 46.9792 159.907 47.8779 159.907 49.0596C159.907 50.2412 160.111 51.1292 160.52 51.7236C160.928 52.3109 161.511 52.6045 162.271 52.6045Z" fill="white"/>
<path d="M42.4048 133.352H40.7695V136H38.8687V133.352H33.3237V131.85L38.8687 123.831H40.7695V131.733H42.4048V133.352ZM38.8687 131.733V128.687C38.8687 127.602 38.8963 126.714 38.9517 126.022H38.8853C38.7303 126.388 38.4868 126.83 38.1548 127.351L35.1416 131.733H38.8687ZM44.8369 136L49.6348 125.599H43.3262V123.881H51.7183V125.242L46.9453 136H44.8369ZM57.2881 128.421C58.5111 128.421 59.4795 128.745 60.1934 129.393C60.9072 130.04 61.2642 130.923 61.2642 132.041C61.2642 133.335 60.8574 134.348 60.0439 135.079C59.236 135.804 58.085 136.166 56.5908 136.166C55.235 136.166 54.1698 135.947 53.395 135.51V133.742C53.8433 133.997 54.3579 134.193 54.939 134.332C55.52 134.47 56.0596 134.539 56.5576 134.539C57.4375 134.539 58.1071 134.343 58.5664 133.95C59.0257 133.557 59.2554 132.981 59.2554 132.223C59.2554 130.773 58.3312 130.048 56.4829 130.048C56.2228 130.048 55.9019 130.076 55.52 130.131C55.1382 130.181 54.8034 130.239 54.5156 130.306L53.644 129.791L54.1089 123.864H60.4175V125.599H55.8271L55.5532 128.604C55.7469 128.571 55.9821 128.532 56.2588 128.488C56.541 128.444 56.8841 128.421 57.2881 128.421ZM71.5405 133.352H69.9053V136H68.0044V133.352H62.4595V131.85L68.0044 123.831H69.9053V131.733H71.5405V133.352ZM68.0044 131.733V128.687C68.0044 127.602 68.0321 126.714 68.0874 126.022H68.021C67.866 126.388 67.6226 126.83 67.2905 127.351L64.2773 131.733H68.0044Z" fill="white"/>
<path d="M180.517 126.653C180.517 127.423 180.292 128.064 179.844 128.579C179.396 129.088 178.765 129.431 177.952 129.608V129.675C178.926 129.797 179.656 130.101 180.143 130.588C180.63 131.069 180.874 131.711 180.874 132.514C180.874 133.681 180.461 134.583 179.637 135.22C178.812 135.851 177.639 136.166 176.117 136.166C174.772 136.166 173.638 135.947 172.714 135.51V133.775C173.229 134.03 173.774 134.226 174.349 134.365C174.925 134.503 175.478 134.572 176.009 134.572C176.95 134.572 177.653 134.398 178.118 134.049C178.583 133.701 178.815 133.161 178.815 132.431C178.815 131.783 178.558 131.307 178.043 131.003C177.528 130.699 176.72 130.546 175.619 130.546H174.565V128.961H175.636C177.573 128.961 178.541 128.291 178.541 126.952C178.541 126.432 178.372 126.031 178.035 125.749C177.697 125.466 177.199 125.325 176.541 125.325C176.081 125.325 175.639 125.392 175.212 125.524C174.786 125.652 174.283 125.903 173.702 126.28L172.747 124.918C173.859 124.099 175.152 123.69 176.624 123.69C177.847 123.69 178.801 123.953 179.487 124.479C180.174 125.004 180.517 125.729 180.517 126.653ZM190.685 136H182.459V134.522L185.588 131.376C186.513 130.43 187.124 129.761 187.423 129.368C187.727 128.969 187.949 128.596 188.087 128.247C188.225 127.898 188.294 127.525 188.294 127.126C188.294 126.579 188.128 126.147 187.796 125.832C187.47 125.516 187.016 125.358 186.435 125.358C185.97 125.358 185.519 125.444 185.082 125.616C184.65 125.787 184.15 126.097 183.58 126.545L182.525 125.259C183.201 124.689 183.856 124.285 184.493 124.047C185.129 123.809 185.807 123.69 186.526 123.69C187.655 123.69 188.56 123.986 189.241 124.578C189.921 125.165 190.262 125.956 190.262 126.952C190.262 127.5 190.162 128.02 189.963 128.513C189.769 129.005 189.468 129.514 189.058 130.04C188.654 130.56 187.979 131.266 187.033 132.157L184.924 134.199V134.282H190.685V136ZM200.829 133.352H199.193V136H197.292V133.352H191.748V131.85L197.292 123.831H199.193V131.733H200.829V133.352ZM197.292 131.733V128.687C197.292 127.602 197.32 126.714 197.375 126.022H197.309C197.154 126.388 196.911 126.83 196.579 127.351L193.565 131.733H197.292ZM209.652 126.653C209.652 127.423 209.428 128.064 208.98 128.579C208.532 129.088 207.901 129.431 207.087 129.608V129.675C208.061 129.797 208.792 130.101 209.279 130.588C209.766 131.069 210.009 131.711 210.009 132.514C210.009 133.681 209.597 134.583 208.772 135.22C207.948 135.851 206.775 136.166 205.253 136.166C203.908 136.166 202.774 135.947 201.85 135.51V133.775C202.364 134.03 202.909 134.226 203.485 134.365C204.06 134.503 204.614 134.572 205.145 134.572C206.086 134.572 206.789 134.398 207.253 134.049C207.718 133.701 207.951 133.161 207.951 132.431C207.951 131.783 207.693 131.307 207.179 131.003C206.664 130.699 205.856 130.546 204.755 130.546H203.701V128.961H204.771C206.708 128.961 207.677 128.291 207.677 126.952C207.677 126.432 207.508 126.031 207.17 125.749C206.833 125.466 206.335 125.325 205.676 125.325C205.217 125.325 204.774 125.392 204.348 125.524C203.922 125.652 203.418 125.903 202.837 126.28L201.883 124.918C202.995 124.099 204.287 123.69 205.759 123.69C206.982 123.69 207.937 123.953 208.623 124.479C209.309 125.004 209.652 125.729 209.652 126.653Z" fill="white"/>
<path d="M43.8594 179H32.8809V176.69L36.8232 172.705C37.9906 171.509 38.7533 170.682 39.1113 170.224C39.4694 169.758 39.7272 169.328 39.8848 168.935C40.0423 168.541 40.1211 168.132 40.1211 167.71C40.1211 167.08 39.9456 166.611 39.5947 166.303C39.251 165.995 38.7891 165.841 38.209 165.841C37.6003 165.841 37.0094 165.98 36.4365 166.26C35.8636 166.539 35.2656 166.937 34.6426 167.452L32.8379 165.314C33.6113 164.656 34.2523 164.19 34.7607 163.918C35.2692 163.646 35.8242 163.438 36.4258 163.295C37.0273 163.145 37.7005 163.069 38.4453 163.069C39.4264 163.069 40.293 163.248 41.0449 163.606C41.7969 163.965 42.3805 164.466 42.7959 165.11C43.2113 165.755 43.4189 166.493 43.4189 167.323C43.4189 168.047 43.29 168.727 43.0322 169.364C42.7816 169.994 42.3877 170.643 41.8506 171.309C41.3206 171.975 40.3825 172.924 39.0361 174.155L37.0166 176.057V176.207H43.8594V179ZM51.1641 168.967C52.6823 168.967 53.889 169.393 54.7842 170.245C55.6865 171.097 56.1377 172.265 56.1377 173.747C56.1377 175.502 55.597 176.852 54.5156 177.797C53.4342 178.742 51.8874 179.215 49.875 179.215C48.1276 179.215 46.7168 178.932 45.6426 178.366V175.498C46.2083 175.799 46.8672 176.046 47.6191 176.239C48.3711 176.425 49.0837 176.519 49.7568 176.519C51.7835 176.519 52.7969 175.688 52.7969 174.026C52.7969 172.444 51.7477 171.652 49.6494 171.652C49.2699 171.652 48.8509 171.692 48.3926 171.771C47.9342 171.842 47.5618 171.921 47.2754 172.007L45.9541 171.298L46.5449 163.295H55.0635V166.109H49.4561L49.166 169.192L49.542 169.117C49.9788 169.017 50.5195 168.967 51.1641 168.967ZM68.9102 171.147C68.9102 173.89 68.459 175.921 67.5566 177.238C66.6615 178.556 65.2793 179.215 63.4102 179.215C61.5983 179.215 60.2305 178.535 59.3066 177.174C58.39 175.813 57.9316 173.804 57.9316 171.147C57.9316 168.376 58.3792 166.335 59.2744 165.024C60.1696 163.707 61.5482 163.048 63.4102 163.048C65.222 163.048 66.5898 163.735 67.5137 165.11C68.4447 166.485 68.9102 168.498 68.9102 171.147ZM61.2295 171.147C61.2295 173.074 61.3942 174.456 61.7236 175.294C62.0602 176.125 62.6224 176.54 63.4102 176.54C64.1836 176.54 64.7422 176.118 65.0859 175.272C65.4297 174.427 65.6016 173.052 65.6016 171.147C65.6016 169.221 65.4261 167.839 65.0752 167.001C64.7314 166.156 64.1764 165.733 63.4102 165.733C62.6296 165.733 62.071 166.156 61.7344 167.001C61.3978 167.839 61.2295 169.221 61.2295 171.147ZM81.4785 171.147C81.4785 173.89 81.0273 175.921 80.125 177.238C79.2298 178.556 77.8477 179.215 75.9785 179.215C74.1667 179.215 72.7988 178.535 71.875 177.174C70.9583 175.813 70.5 173.804 70.5 171.147C70.5 168.376 70.9476 166.335 71.8428 165.024C72.738 163.707 74.1165 163.048 75.9785 163.048C77.7904 163.048 79.1582 163.735 80.082 165.11C81.013 166.485 81.4785 168.498 81.4785 171.147ZM73.7979 171.147C73.7979 173.074 73.9626 174.456 74.292 175.294C74.6286 176.125 75.1908 176.54 75.9785 176.54C76.752 176.54 77.3105 176.118 77.6543 175.272C77.998 174.427 78.1699 173.052 78.1699 171.147C78.1699 169.221 77.9945 167.839 77.6436 167.001C77.2998 166.156 76.7448 165.733 75.9785 165.733C75.1979 165.733 74.6393 166.156 74.3027 167.001C73.9661 167.839 73.7979 169.221 73.7979 171.147ZM94.0469 171.147C94.0469 173.89 93.5957 175.921 92.6934 177.238C91.7982 178.556 90.416 179.215 88.5469 179.215C86.735 179.215 85.3672 178.535 84.4434 177.174C83.5267 175.813 83.0684 173.804 83.0684 171.147C83.0684 168.376 83.516 166.335 84.4111 165.024C85.3063 163.707 86.6849 163.048 88.5469 163.048C90.3587 163.048 91.7266 163.735 92.6504 165.11C93.5814 166.485 94.0469 168.498 94.0469 171.147ZM86.3662 171.147C86.3662 173.074 86.5309 174.456 86.8604 175.294C87.1969 176.125 87.7591 176.54 88.5469 176.54C89.3203 176.54 89.8789 176.118 90.2227 175.272C90.5664 174.427 90.7383 173.052 90.7383 171.147C90.7383 169.221 90.5628 167.839 90.2119 167.001C89.8682 166.156 89.3132 165.733 88.5469 165.733C87.7663 165.733 87.2077 166.156 86.8711 167.001C86.5345 167.839 86.3662 169.221 86.3662 171.147ZM112.147 179L111.009 175.262H105.283L104.145 179H100.557L106.1 163.23H110.171L115.735 179H112.147ZM110.214 172.469C109.161 169.081 108.567 167.166 108.431 166.722C108.302 166.278 108.209 165.927 108.151 165.669C107.915 166.586 107.238 168.852 106.121 172.469H110.214ZM126.768 179H117.723V163.295H126.768V166.023H121.053V169.472H126.37V172.2H121.053V176.25H126.768V179ZM143.085 170.997C143.085 173.582 142.347 175.562 140.872 176.938C139.404 178.312 137.281 179 134.502 179H130.055V163.295H134.985C137.549 163.295 139.54 163.972 140.958 165.325C142.376 166.679 143.085 168.569 143.085 170.997ZM139.626 171.083C139.626 167.71 138.136 166.023 135.157 166.023H133.385V176.25H134.813C138.022 176.25 139.626 174.528 139.626 171.083Z" fill="white"/>
<rect x="82" y="127" width="5" height="5" rx="2.5" fill="white"/>
<rect x="92" y="127" width="5" height="5" rx="2.5" fill="white"/>
<rect x="102" y="127" width="5" height="5" rx="2.5" fill="white"/>
<rect x="112" y="127" width="5" height="5" rx="2.5" fill="white"/>
<rect x="127" y="127" width="5" height="5" rx="2.5" fill="white"/>
<rect x="137" y="127" width="5" height="5" rx="2.5" fill="white"/>
<rect x="147" y="127" width="5" height="5" rx="2.5" fill="white"/>
<rect x="157" y="127" width="5" height="5" rx="2.5" fill="white"/>
<defs>
<linearGradient id="paint0_linear_1_2" x1="283.212" y1="42.35" x2="229.659" y2="88.8698" gradientUnits="userSpaceOnUse">
<stop stop-color="white" stop-opacity="0"/>
<stop offset="1" stop-color="white" stop-opacity="0.7"/>
</linearGradient>
<linearGradient id="paint1_linear_1_2" x1="258.832" y1="65.0118" x2="221.613" y2="97.3428" gradientUnits="userSpaceOnUse">
<stop stop-color="white" stop-opacity="0"/>
<stop offset="1" stop-color="white" stop-opacity="0.7"/>
</linearGradient>
<linearGradient id="paint2_linear_1_2" x1="28.0663" y1="170.582" x2="72.6336" y2="145.893" gradientUnits="userSpaceOnUse">
<stop stop-color="white" stop-opacity="0"/>
<stop offset="1" stop-color="white" stop-opacity="0.7"/>
</linearGradient>
</defs>
</svg>
