<svg width="24" height="24" viewBox="0 0 24 24" fill="none" xmlns="http://www.w3.org/2000/svg">
<path d="M10.7291 0.947321C11.1063 1.32449 11.7178 1.32449 12.095 0.947321C12.7359 0.306378 13.7751 0.306378 14.416 0.947321C14.7932 1.32449 15.4047 1.32449 15.7819 0.947321L15.7876 0.941555C16.069 0.660202 16.5369 0.953556 16.4064 1.32941L15.3603 4.33973H11.1618L10.1107 1.33593C9.97915 0.959931 10.4475 0.66564 10.7291 0.947321Z" fill="#38972E"/>
<path d="M18.7339 7.78556L15.2872 4.3389H11.2351L7.78849 7.78556C4.76598 10.8081 4.76598 15.7085 7.78849 18.731C10.8109 21.7536 15.7114 21.7536 18.7339 18.731C21.7564 15.7085 21.7564 10.808 18.7339 7.78556Z" fill="#FFAF7A"/>
<path d="M4.59387 23.5315H13.6988C15.5065 23.5315 17.2431 22.8266 18.5395 21.5667L23.1296 17.1057C23.8889 16.3676 23.5178 15.0811 22.4821 14.8608C22.0705 14.7733 21.6419 14.8866 21.3274 15.166L16.7284 19.2505C15.9538 19.9385 14.9538 20.3184 13.9179 20.3184L9.1184 18.8578L13.5148 20.2558C14.0982 20.4413 14.7329 20.205 15.0531 19.6832C15.4661 19.01 15.2057 18.1273 14.4934 17.7861L11.1841 16.2011C9.84264 15.5586 8.29843 15.4854 6.90217 15.9981L4.6032 16.8422L4.59387 23.5315Z" fill="#38972E"/>
<path d="M3.71884 16.2188H1.34379C0.860544 16.2188 0.46875 16.6105 0.46875 17.0938V22.6565C0.46875 23.1397 0.860497 23.5315 1.34379 23.5315H3.71889C4.20214 23.5315 4.59393 23.1398 4.59393 22.6565V17.0938C4.59389 16.6105 4.20214 16.2188 3.71884 16.2188Z" fill="#FFAF7A"/>
<path d="M13.2613 10.1684C13.6018 10.1684 13.8787 10.4003 13.8787 10.6853C13.8787 10.9441 14.0886 11.154 14.3474 11.154C14.6063 11.154 14.8162 10.9441 14.8162 10.6853C14.8162 10.0361 14.3591 9.48495 13.7301 9.29853V9.23337C13.7301 8.97452 13.5202 8.7646 13.2613 8.7646C13.0025 8.7646 12.7926 8.97452 12.7926 9.23337V9.29853C12.1636 9.485 11.7065 10.0361 11.7065 10.6853C11.7065 11.4872 12.404 12.1397 13.2613 12.1397C13.6018 12.1397 13.8787 12.3716 13.8787 12.6566C13.8787 12.9416 13.6018 13.1734 13.2613 13.1734C12.921 13.1734 12.6441 12.9416 12.6441 12.6566C12.6441 12.3977 12.4342 12.1878 12.1753 12.1878C11.9165 12.1878 11.7065 12.3977 11.7065 12.6566C11.7065 13.3058 12.1636 13.8569 12.7926 14.0433V14.1084C12.7926 14.3673 13.0025 14.5772 13.2613 14.5772C13.5202 14.5772 13.7301 14.3673 13.7301 14.1084V14.0433C14.3591 13.8569 14.8162 13.3058 14.8162 12.6566C14.8162 11.8546 14.1187 11.2021 13.2613 11.2021C12.921 11.2021 12.6441 10.9703 12.6441 10.6853C12.6441 10.4003 12.921 10.1684 13.2613 10.1684Z" fill="#141010"/>
<path d="M23.9295 15.6589C23.7456 15.0216 23.2284 14.54 22.5796 14.402C22.1642 14.3136 21.7321 14.3781 21.3631 14.5742C21.5767 13.2455 21.4645 11.871 21.0248 10.5898C20.9408 10.345 20.6741 10.2148 20.4293 10.2986C20.1844 10.3826 20.054 10.6493 20.138 10.8942C20.6573 12.4072 20.6615 14.067 20.1528 15.5819L16.4172 18.8997C16.1867 19.1044 15.9339 19.2779 15.6653 19.4188C15.7412 19.1115 15.736 18.7862 15.6448 18.4771C15.5008 17.9889 15.1549 17.5828 14.6958 17.363L11.3866 15.7779C9.93975 15.085 8.24638 15.0048 6.74061 15.5576L6.40423 15.6811C5.47054 13.0435 6.12044 10.1184 8.11991 8.11892L11.4293 4.80955H15.093L17.897 7.61359C18.0801 7.79659 18.3769 7.79659 18.56 7.61359C18.7431 7.43053 18.7431 7.13371 18.56 6.95061L15.8808 4.27159L16.8494 1.48439C16.9792 1.11074 16.8358 0.703094 16.5006 0.492992C16.1656 0.282937 15.7361 0.331642 15.4564 0.611216L15.4506 0.616981C15.2569 0.810817 14.9415 0.810817 14.7477 0.616981C13.925 -0.20566 12.5865 -0.20566 11.7637 0.616981C11.6699 0.710876 11.545 0.762534 11.4123 0.762534C11.2795 0.762534 11.1547 0.710829 11.0609 0.616981C10.7809 0.336986 10.3511 0.288515 10.0158 0.499227C9.68048 0.709891 9.53765 1.11809 9.66848 1.49189L10.6412 4.27188L7.45698 7.45608C6.27855 8.63456 5.4952 10.1204 5.19172 11.7529C4.92551 13.1845 5.04082 14.6443 5.52342 16.0047L4.78441 16.276C4.5385 15.9563 4.15247 15.7497 3.7189 15.7497H1.34381C0.602833 15.7497 0 16.3525 0 17.0935V22.6562C0 23.3972 0.602833 24 1.34381 24H13.6988C15.6394 24 17.4746 23.2551 18.8662 21.9026L23.4563 17.4416C23.9319 16.9793 24.1132 16.2963 23.9295 15.6589ZM11.4122 1.70007C11.7954 1.70007 12.1557 1.55086 12.4266 1.27991C12.8838 0.822771 13.6276 0.822771 14.0848 1.27991C14.3557 1.55086 14.716 1.70007 15.0992 1.70007C15.3712 1.70007 15.6317 1.62488 15.8569 1.48425L15.0272 3.87206H11.4946L10.6602 1.48786C10.8842 1.62615 11.1425 1.70007 11.4122 1.70007ZM0.937531 22.6562V17.0935C0.937531 16.8695 1.11979 16.6872 1.34381 16.6872H3.71886C3.94288 16.6872 4.12514 16.8695 4.12514 17.0935V22.6562C4.12514 22.8802 3.94288 23.0625 3.71886 23.0625H1.34381C1.11979 23.0625 0.937531 22.8802 0.937531 22.6562ZM22.8029 16.7692L18.2128 21.2303C16.9971 22.4118 15.394 23.0625 13.6988 23.0625H4.99971C5.0405 22.9342 5.06267 22.7977 5.06267 22.6562V17.1726L7.06374 16.4378C8.33348 15.9716 9.76158 16.0392 10.9816 16.6236L14.2909 18.2086C14.5141 18.3155 14.6756 18.5051 14.7456 18.7425C14.8156 18.9799 14.7829 19.2269 14.6535 19.4378C14.4456 19.7767 14.0356 19.9292 13.6568 19.8088L9.26042 18.4108C9.01375 18.3324 8.75012 18.4687 8.6716 18.7155C8.59318 18.9622 8.72954 19.2258 8.9763 19.3043L13.3727 20.7023C13.5537 20.7599 13.7381 20.7875 13.9201 20.7875C13.9421 20.7875 13.9639 20.7862 13.9858 20.7854C15.1132 20.7692 16.1953 20.3507 17.0396 19.6008L21.6386 15.5162C21.841 15.3365 22.12 15.2629 22.3846 15.3191C22.6988 15.386 22.9396 15.6101 23.0286 15.9188C23.1176 16.2274 23.0333 16.5454 22.8029 16.7692Z" fill="#141010"/>
<path d="M19.629 9.32816C19.7523 9.32816 19.8733 9.27847 19.9604 9.19081C20.0476 9.10362 20.0978 8.9831 20.0978 8.85939C20.0978 8.73611 20.0477 8.61563 19.9604 8.52797C19.8733 8.44083 19.7523 8.39062 19.629 8.39062C19.5057 8.39062 19.3853 8.44078 19.2976 8.52797C19.2104 8.61563 19.1603 8.73611 19.1603 8.85939C19.1603 8.98314 19.2104 9.10362 19.2976 9.19081C19.3848 9.27847 19.5057 9.32816 19.629 9.32816Z" fill="#141010"/>
<path d="M10.7291 0.947321C11.1063 1.32449 11.7178 1.32449 12.095 0.947321C12.7359 0.306378 13.7751 0.306378 14.416 0.947321C14.7932 1.32449 15.4047 1.32449 15.7819 0.947321L15.7876 0.941555C16.069 0.660202 16.5369 0.953556 16.4064 1.32941L15.3603 4.33973H11.1618L10.1107 1.33593C9.97915 0.959931 10.4475 0.66564 10.7291 0.947321Z" fill="#38972E"/>
<path d="M18.7339 7.78556L15.2872 4.3389H11.2351L7.78849 7.78556C4.76598 10.8081 4.76598 15.7085 7.78849 18.731C10.8109 21.7536 15.7114 21.7536 18.7339 18.731C21.7564 15.7085 21.7564 10.808 18.7339 7.78556Z" fill="#FFAF7A"/>
<path d="M4.59387 23.5315H13.6988C15.5065 23.5315 17.2431 22.8266 18.5395 21.5667L23.1296 17.1057C23.8889 16.3676 23.5178 15.0811 22.4821 14.8608C22.0705 14.7733 21.6419 14.8866 21.3274 15.166L16.7284 19.2505C15.9538 19.9385 14.9538 20.3184 13.9179 20.3184L9.1184 18.8578L13.5148 20.2558C14.0982 20.4413 14.7329 20.205 15.0531 19.6832C15.4661 19.01 15.2057 18.1273 14.4934 17.7861L11.1841 16.2011C9.84264 15.5586 8.29843 15.4854 6.90217 15.9981L4.6032 16.8422L4.59387 23.5315Z" fill="#38972E"/>
<path d="M3.71884 16.2188H1.34379C0.860544 16.2188 0.46875 16.6105 0.46875 17.0938V22.6565C0.46875 23.1397 0.860497 23.5315 1.34379 23.5315H3.71889C4.20214 23.5315 4.59393 23.1398 4.59393 22.6565V17.0938C4.59389 16.6105 4.20214 16.2188 3.71884 16.2188Z" fill="#FFAF7A"/>
<path d="M13.2613 10.1684C13.6018 10.1684 13.8787 10.4003 13.8787 10.6853C13.8787 10.9441 14.0886 11.154 14.3474 11.154C14.6063 11.154 14.8162 10.9441 14.8162 10.6853C14.8162 10.0361 14.3591 9.48495 13.7301 9.29853V9.23337C13.7301 8.97452 13.5202 8.7646 13.2613 8.7646C13.0025 8.7646 12.7926 8.97452 12.7926 9.23337V9.29853C12.1636 9.485 11.7065 10.0361 11.7065 10.6853C11.7065 11.4872 12.404 12.1397 13.2613 12.1397C13.6018 12.1397 13.8787 12.3716 13.8787 12.6566C13.8787 12.9416 13.6018 13.1734 13.2613 13.1734C12.921 13.1734 12.6441 12.9416 12.6441 12.6566C12.6441 12.3977 12.4342 12.1878 12.1753 12.1878C11.9165 12.1878 11.7065 12.3977 11.7065 12.6566C11.7065 13.3058 12.1636 13.8569 12.7926 14.0433V14.1084C12.7926 14.3673 13.0025 14.5772 13.2613 14.5772C13.5202 14.5772 13.7301 14.3673 13.7301 14.1084V14.0433C14.3591 13.8569 14.8162 13.3058 14.8162 12.6566C14.8162 11.8546 14.1187 11.2021 13.2613 11.2021C12.921 11.2021 12.6441 10.9703 12.6441 10.6853C12.6441 10.4003 12.921 10.1684 13.2613 10.1684Z" fill="#141010"/>
<path d="M23.9295 15.6589C23.7456 15.0216 23.2284 14.54 22.5796 14.402C22.1642 14.3136 21.7321 14.3781 21.3631 14.5742C21.5767 13.2455 21.4645 11.871 21.0248 10.5898C20.9408 10.345 20.6741 10.2148 20.4293 10.2986C20.1844 10.3826 20.054 10.6493 20.138 10.8942C20.6573 12.4072 20.6615 14.067 20.1528 15.5819L16.4172 18.8997C16.1867 19.1044 15.9339 19.2779 15.6653 19.4188C15.7412 19.1115 15.736 18.7862 15.6448 18.4771C15.5008 17.9889 15.1549 17.5828 14.6958 17.363L11.3866 15.7779C9.93975 15.085 8.24638 15.0048 6.74061 15.5576L6.40423 15.6811C5.47054 13.0435 6.12044 10.1184 8.11991 8.11892L11.4293 4.80955H15.093L17.897 7.61359C18.0801 7.79659 18.3769 7.79659 18.56 7.61359C18.7431 7.43053 18.7431 7.13371 18.56 6.95061L15.8808 4.27159L16.8494 1.48439C16.9792 1.11074 16.8358 0.703094 16.5006 0.492992C16.1656 0.282937 15.7361 0.331642 15.4564 0.611216L15.4506 0.616981C15.2569 0.810817 14.9415 0.810817 14.7477 0.616981C13.925 -0.20566 12.5865 -0.20566 11.7637 0.616981C11.6699 0.710876 11.545 0.762534 11.4123 0.762534C11.2795 0.762534 11.1547 0.710829 11.0609 0.616981C10.7809 0.336986 10.3511 0.288515 10.0158 0.499227C9.68048 0.709891 9.53765 1.11809 9.66848 1.49189L10.6412 4.27188L7.45698 7.45608C6.27855 8.63456 5.4952 10.1204 5.19172 11.7529C4.92551 13.1845 5.04082 14.6443 5.52342 16.0047L4.78441 16.276C4.5385 15.9563 4.15247 15.7497 3.7189 15.7497H1.34381C0.602833 15.7497 0 16.3525 0 17.0935V22.6562C0 23.3972 0.602833 24 1.34381 24H13.6988C15.6394 24 17.4746 23.2551 18.8662 21.9026L23.4563 17.4416C23.9319 16.9793 24.1132 16.2963 23.9295 15.6589ZM11.4122 1.70007C11.7954 1.70007 12.1557 1.55086 12.4266 1.27991C12.8838 0.822771 13.6276 0.822771 14.0848 1.27991C14.3557 1.55086 14.716 1.70007 15.0992 1.70007C15.3712 1.70007 15.6317 1.62488 15.8569 1.48425L15.0272 3.87206H11.4946L10.6602 1.48786C10.8842 1.62615 11.1425 1.70007 11.4122 1.70007ZM0.937531 22.6562V17.0935C0.937531 16.8695 1.11979 16.6872 1.34381 16.6872H3.71886C3.94288 16.6872 4.12514 16.8695 4.12514 17.0935V22.6562C4.12514 22.8802 3.94288 23.0625 3.71886 23.0625H1.34381C1.11979 23.0625 0.937531 22.8802 0.937531 22.6562ZM22.8029 16.7692L18.2128 21.2303C16.9971 22.4118 15.394 23.0625 13.6988 23.0625H4.99971C5.0405 22.9342 5.06267 22.7977 5.06267 22.6562V17.1726L7.06374 16.4378C8.33348 15.9716 9.76158 16.0392 10.9816 16.6236L14.2909 18.2086C14.5141 18.3155 14.6756 18.5051 14.7456 18.7425C14.8156 18.9799 14.7829 19.2269 14.6535 19.4378C14.4456 19.7767 14.0356 19.9292 13.6568 19.8088L9.26042 18.4108C9.01375 18.3324 8.75012 18.4687 8.6716 18.7155C8.59318 18.9622 8.72954 19.2258 8.9763 19.3043L13.3727 20.7023C13.5537 20.7599 13.7381 20.7875 13.9201 20.7875C13.9421 20.7875 13.9639 20.7862 13.9858 20.7854C15.1132 20.7692 16.1953 20.3507 17.0396 19.6008L21.6386 15.5162C21.841 15.3365 22.12 15.2629 22.3846 15.3191C22.6988 15.386 22.9396 15.6101 23.0286 15.9188C23.1176 16.2274 23.0333 16.5454 22.8029 16.7692Z" fill="#141010"/>
<path d="M19.629 9.32816C19.7523 9.32816 19.8733 9.27847 19.9604 9.19081C20.0476 9.10362 20.0978 8.9831 20.0978 8.85939C20.0978 8.73611 20.0477 8.61563 19.9604 8.52797C19.8733 8.44083 19.7523 8.39062 19.629 8.39062C19.5057 8.39062 19.3853 8.44078 19.2976 8.52797C19.2104 8.61563 19.1603 8.73611 19.1603 8.85939C19.1603 8.98314 19.2104 9.10362 19.2976 9.19081C19.3848 9.27847 19.5057 9.32816 19.629 9.32816Z" fill="#141010"/>
</svg>
