<svg width="275" height="300" viewBox="0 0 275 300" fill="none" xmlns="http://www.w3.org/2000/svg">
<path fill-rule="evenodd" clip-rule="evenodd" d="M60.0001 0H70.0001V2H60.0001C45.8014 2 35.3536 2.00425 27.3484 3.08052C19.4008 4.14905 14.1609 6.24115 10.2011 10.201C6.2412 14.1609 4.1491 19.4007 3.08057 27.3483C2.0668 34.8886 2.00416 44.5961 2.00031 57.5639H0.000270844C0.00751015 30.8963 0.25602 17.3176 8.78685 8.7868C17.5736 0 31.7158 0 60.0001 0ZM215 2H205V0H215C243.284 0 257.426 0 266.213 8.7868C274.744 17.3176 274.993 30.8963 275 57.5639H273C272.996 44.5961 272.933 34.8886 271.92 27.3483C270.851 19.4007 268.759 14.1609 264.799 10.201C260.839 6.24115 255.599 4.14905 247.652 3.08052C239.647 2.00425 229.199 2 215 2ZM272.999 243.24C272.993 255.806 272.912 265.268 271.92 272.652C270.851 280.599 268.759 285.839 264.799 289.799C260.839 293.759 255.599 295.851 247.652 296.919C239.647 297.996 229.199 298 215 298H205V300H215C243.284 300 257.426 300 266.213 291.213C274.658 282.768 274.987 269.377 275 243.24H272.999ZM70.0001 300H60C31.7158 300 17.5736 300 8.78685 291.213C0.342126 282.768 0.0133706 269.377 0.000572063 243.24H2.00063C2.00717 255.806 2.08785 265.268 3.08057 272.652C4.1491 280.599 6.2412 285.839 10.2011 289.799C14.1609 293.759 19.4008 295.851 27.3484 296.919C35.3536 297.996 45.8014 298 60 298H70.0001V300Z" fill="#141010"/>
</svg>
